<svg xmlns="http://www.w3.org/2000/svg" viewBox="0 0 1406 2693" width="1406" height="2693"><rect width="100%" height="100%" fill="#111111"/><defs><marker id="arrow-4dabf7" viewBox="0 0 10 10" refX="9" refY="5" markerWidth="7" markerHeight="7" orient="auto-start-reverse"><path d="M 0 1 L 9 5 L 0 9 z" fill="#4dabf7"/></marker><marker id="arrow-ced4da" viewBox="0 0 10 10" refX="9" refY="5" markerWidth="7" markerHeight="7" orient="auto-start-reverse"><path d="M 0 1 L 9 5 L 0 9 z" fill="#ced4da"/></marker></defs><rect x="523" y="40" width="380" height="386.5" rx="12" fill="#1a1d21" stroke="#495057" stroke-width="2" stroke-dasharray="8 5"/><text text-anchor='start' font-family="'Comic Shanns','Virgil','Segoe UI',system-ui,sans-serif" font-size="22" fill="#dee2e6"><tspan x="643" y="70">FASE 1 · PREPARACIÓN</tspan></text><rect x="80" y="436.5" width="1266" height="1962.5" rx="12" fill="#2b2717" stroke="#495057" stroke-width="2" stroke-dasharray="8 5"/><text text-anchor='start' font-family="'Comic Shanns','Virgil','Segoe UI',system-ui,sans-serif" font-size="22" fill="#dee2e6"><tspan x="200" y="466.6">FASE 2 · LOOP DE EVOLUCIÓN (H1…Hn)</tspan></text><rect x="580.9" y="2409" width="765.1" height="224" rx="12" fill="#15291a" stroke="#495057" stroke-width="2" stroke-dasharray="8 5"/><text text-anchor='start' font-family="'Comic Shanns','Virgil','Segoe UI',system-ui,sans-serif" font-size="22" fill="#dee2e6"><tspan x="700.9" y="2439.1">FASE 3 · CIERRE</tspan></text><text text-anchor='start' font-family="'Comic Shanns','Virgil','Segoe UI',system-ui,sans-serif" font-size="24" fill="#f8f9fa"><tspan x="80" y="36.6">Flow: demo_agent</tspan></text><path d="M 713 158.5 L 713 188.5" fill="none" stroke="#ced4da" stroke-width="2" marker-end="url(#arrow-ced4da)"/><path d="M 713 272.5 L 713 476.5" fill="none" stroke="#ced4da" stroke-width="2" marker-end="url(#arrow-ced4da)"/><path d="M 713 386.5 L 713 610" fill="none" stroke="#ced4da" stroke-width="2" marker-end="url(#arrow-ced4da)"/><path d="M 713 694 L 713 724" fill="none" stroke="#ced4da" stroke-width="2" marker-end="url(#arrow-ced4da)"/><path d="M 713 888 L 713 918" fill="none" stroke="#ced4da" stroke-width="2" marker-end="url(#arrow-ced4da)"/><path d="M 713 1002 L 713 1032" fill="none" stroke="#ced4da" stroke-width="2" marker-end="url(#arrow-ced4da)"/><path d="M 713 1161 L 713 1191" fill="none" stroke="#ced4da" stroke-width="2" marker-end="url(#arrow-ced4da)"/><path d="M 713 1355 L 713 1385" fill="none" stroke="#ced4da" stroke-width="2" marker-end="url(#arrow-ced4da)"/><path d="M 713 1469 L 713 1499" fill="none" stroke="#ced4da" stroke-width="2" marker-end="url(#arrow-ced4da)"/><path d="M 1166 620.5 L 1166 1156.8 L 713 1156.8 L 713 1693" fill="none" stroke="#ced4da" stroke-width="2" marker-end="url(#arrow-ced4da)"/><path d="M 260 620.5 L 260 650.5" fill="none" stroke="#ced4da" stroke-width="2" marker-end="url(#arrow-ced4da)"/><path d="M 713 1663 L 713 1807" fill="none" stroke="#ced4da" stroke-width="2" marker-end="url(#arrow-ced4da)"/><path d="M 1026 692.5 L 713 692.5 L 713 806.5 L 400 806.5" fill="none" stroke="#ced4da" stroke-width="2" marker-end="url(#arrow-ced4da)"/><path d="M 713 1971 L 713 2001" fill="none" stroke="#ced4da" stroke-width="2" marker-end="url(#arrow-ced4da)"/><path d="M 1026 806.5 L 713 806.5 L 713 920.5 L 400 920.5" fill="none" stroke="#ced4da" stroke-width="2" marker-end="url(#arrow-ced4da)"/><path d="M 713 2165 L 713 2195" fill="none" stroke="#ced4da" stroke-width="2" marker-end="url(#arrow-ced4da)"/><path d="M 1166 962.5 L 1166 1173.8 L 713 1173.8 L 713 1385" fill="none" stroke="#ced4da" stroke-width="2" marker-end="url(#arrow-ced4da)"/><text text-anchor='middle' font-family="'Comic Shanns','Virgil','Segoe UI',system-ui,sans-serif" font-size="11" fill="#adb5bd"><tspan x="939.5" y="1164.8">loop</tspan></text><path d="M 713 694 L 713 1601.5 L 1166 1601.5 L 1166 2509" fill="none" stroke="#ced4da" stroke-width="2" marker-end="url(#arrow-ced4da)"/><path d="M 713 476.5 L 933 476.5 L 933 386.5 L 713 386.5" fill="none" stroke="#4dabf7" stroke-width="2" stroke-dasharray="6 4" marker-end="url(#arrow-4dabf7)"/><path d="M 713 1499 L 1421 1499 L 1421 620.5 L 1166 620.5" fill="none" stroke="#4dabf7" stroke-width="2" stroke-dasharray="6 4" marker-end="url(#arrow-4dabf7)"/><text text-anchor='middle' font-family="'Comic Shanns','Virgil','Segoe UI',system-ui,sans-serif" font-size="13" fill="#4dabf7"><tspan x="939.5" y="1051.3">YES</tspan></text><path d="M 713 1693 L 50 1693 L 50 620.5 L 260 620.5" fill="none" stroke="#4dabf7" stroke-width="2" stroke-dasharray="6 4" marker-end="url(#arrow-4dabf7)"/><path d="M 713 1807 L 1466 1807 L 1466 734.5 L 1166 734.5" fill="none" stroke="#4dabf7" stroke-width="2" stroke-dasharray="6 4" marker-end="url(#arrow-4dabf7)"/><text text-anchor='middle' font-family="'Comic Shanns','Virgil','Segoe UI',system-ui,sans-serif" font-size="13" fill="#4dabf7"><tspan x="939.5" y="1262.3">YES</tspan></text><path d="M 713 2001 L 1511 2001 L 1511 848.5 L 1166 848.5" fill="none" stroke="#4dabf7" stroke-width="2" stroke-dasharray="6 4" marker-end="url(#arrow-4dabf7)"/><text text-anchor='middle' font-family="'Comic Shanns','Virgil','Segoe UI',system-ui,sans-serif" font-size="13" fill="#4dabf7"><tspan x="939.5" y="1416.3">YES</tspan></text><path d="M 713 2195 L 1556 2195 L 1556 962.5 L 1166 962.5" fill="none" stroke="#4dabf7" stroke-width="2" stroke-dasharray="6 4" marker-end="url(#arrow-4dabf7)"/><text text-anchor='middle' font-family="'Comic Shanns','Virgil','Segoe UI',system-ui,sans-serif" font-size="13" fill="#4dabf7"><tspan x="939.5" y="1570.3">YES</tspan></text><path d="M 713 1385 L 1148 1385 L 1148 694 L 713 694" fill="none" stroke="#4dabf7" stroke-width="2" stroke-dasharray="6 4" marker-end="url(#arrow-4dabf7)"/><text text-anchor='middle' font-family="'Comic Shanns','Virgil','Segoe UI',system-ui,sans-serif" font-size="13" fill="#4dabf7"><tspan x="713" y="1031.1">loop</tspan></text><path d="M 1166 2509 L 1646 2509 L 1646 2527.5 L 713 2527.5" fill="none" stroke="#4dabf7" stroke-width="2" stroke-dasharray="6 4" marker-end="url(#arrow-4dabf7)"/><ellipse cx="713" cy="119.2" rx="90" ry="39.2" fill="#14532d" stroke="#4ade80" stroke-width="2"/><text text-anchor='middle' font-family="'Comic Shanns','Virgil','Segoe UI',system-ui,sans-serif" font-size="14" fill="#f1f3f5"><tspan x="713" y="106.6">Start</tspan></text><text text-anchor='middle' font-family="'Comic Shanns','Virgil','Segoe UI',system-ui,sans-serif" font-size="10" fill="#adb5bd"><tspan x="713" y="128.5">Agent.run() invoked</tspan><tspan x="713" y="141">budget.start()</tspan></text><rect x="563" y="188.5" width="300" height="84" rx="8" fill="#4c1d95" stroke="#a78bfa" stroke-width="2"/><text text-anchor='middle' font-family="'Comic Shanns','Virgil','Segoe UI',system-ui,sans-serif" font-size="14" fill="#f1f3f5"><tspan x="713" y="217.8">Init Agent</tspan></text><text text-anchor='middle' font-family="'Comic Shanns','Virgil','Segoe UI',system-ui,sans-serif" font-size="10" fill="#adb5bd"><tspan x="713" y="239.8">Configura LLM, budget, memory,</tspan><tspan x="713" y="252.2">context manager, harness snapshot</tspan></text><rect x="563" y="302.5" width="300" height="84" rx="8" fill="#4c1d95" stroke="#a78bfa" stroke-width="2"/><text text-anchor='middle' font-family="'Comic Shanns','Virgil','Segoe UI',system-ui,sans-serif" font-size="14" fill="#f1f3f5"><tspan x="713" y="331.9">Seed Workspace</tspan></text><text text-anchor='middle' font-family="'Comic Shanns','Virgil','Segoe UI',system-ui,sans-serif" font-size="10" fill="#adb5bd"><tspan x="713" y="353.8">Si workspace/current existe</tspan><tspan x="713" y="366.2">→ evalúa como H0 inicial</tspan></text><rect x="573" y="476.5" width="280" height="103.5" rx="8" fill="#831843" stroke="#f472b6" stroke-width="2"/><text text-anchor='middle' font-family="'Comic Shanns','Virgil','Segoe UI',system-ui,sans-serif" font-size="14" fill="#f1f3f5"><tspan x="713" y="503.1">Main Loop</tspan></text><text text-anchor='middle' font-family="'Comic Shanns','Virgil','Segoe UI',system-ui,sans-serif" font-size="10" fill="#adb5bd"><tspan x="713" y="525">while True:</tspan><tspan x="713" y="537.5">  turn += 1</tspan><tspan x="713" y="550">  register_evaluation()</tspan><tspan x="713" y="562.5">  budget.done()?</tspan></text><rect x="573" y="610" width="280" height="84" rx="8" fill="#831843" stroke="#f472b6" stroke-width="2"/><text text-anchor='middle' font-family="'Comic Shanns','Virgil','Segoe UI',system-ui,sans-serif" font-size="14" fill="#f1f3f5"><tspan x="713" y="647.1">Main Loop</tspan><tspan x="713" y="664.6">(while True)</tspan></text><polygon points="713,724 900,806 713,888 526,806" fill="#713f12" stroke="#facc15" stroke-width="2"/><text text-anchor='middle' font-family="'Comic Shanns','Virgil','Segoe UI',system-ui,sans-serif" font-size="14" fill="#f1f3f5"><tspan x="713" y="784.6">Budget</tspan><tspan x="713" y="802.1">done?</tspan></text><text text-anchor='middle' font-family="'Comic Shanns','Virgil','Segoe UI',system-ui,sans-serif" font-size="10" fill="#adb5bd"><tspan x="713" y="824">turns ≥ 24 OR cost ≥ $5.00</tspan><tspan x="713" y="836.5">OR stagnation ≥ 16 OR time ≥ 120min</tspan></text><rect x="563" y="918" width="300" height="84" rx="8" fill="#4c1d95" stroke="#a78bfa" stroke-width="2"/><text text-anchor='middle' font-family="'Comic Shanns','Virgil','Segoe UI',system-ui,sans-serif" font-size="14" fill="#f1f3f5"><tspan x="713" y="947.4">state = Render State</tspan></text><text text-anchor='middle' font-family="'Comic Shanns','Virgil','Segoe UI',system-ui,sans-serif" font-size="10" fill="#adb5bd"><tspan x="713" y="969.2">Genera prompt con: turn, cost,</tspan><tspan x="713" y="981.8">best, tree, lessons, stagnation</tspan></text><polygon points="713,1032 839.3,1096.5 713,1161 586.7,1096.5" fill="#713f12" stroke="#facc15" stroke-width="2"/><text text-anchor='middle' font-family="'Comic Shanns','Virgil','Segoe UI',system-ui,sans-serif" font-size="14" fill="#f1f3f5"><tspan x="713" y="1083.8">NOT tool_calls?</tspan></text><text text-anchor='middle' font-family="'Comic Shanns','Virgil','Segoe UI',system-ui,sans-serif" font-size="10" fill="#adb5bd"><tspan x="713" y="1105.8">Niega tool_calls</tspan><tspan x="713" y="1118.2">para lógica invertida</tspan></text><polygon points="713,1191 878.6,1273 713,1355 547.4,1273" fill="#713f12" stroke="#facc15" stroke-width="2"/><text text-anchor='middle' font-family="'Comic Shanns','Virgil','Segoe UI',system-ui,sans-serif" font-size="14" fill="#f1f3f5"><tspan x="713" y="1251.6">Agent said</tspan><tspan x="713" y="1269.1">done?</tspan></text><text text-anchor='middle' font-family="'Comic Shanns','Virgil','Segoe UI',system-ui,sans-serif" font-size="10" fill="#adb5bd"><tspan x="713" y="1291">¿Agente dijo done/fin/finalizado?</tspan><tspan x="713" y="1303.5">→ terminar si alcanzó target_h</tspan></text><rect x="573" y="1385" width="280" height="84" rx="8" fill="#831843" stroke="#f472b6" stroke-width="2"/><text text-anchor='middle' font-family="'Comic Shanns','Virgil','Segoe UI',system-ui,sans-serif" font-size="14" fill="#f1f3f5"><tspan x="713" y="1430.8">For each call in tool_calls</tspan></text><polygon points="713,1499 904.4,1581 713,1663 521.6,1581" fill="#713f12" stroke="#facc15" stroke-width="2"/><text text-anchor='middle' font-family="'Comic Shanns','Virgil','Segoe UI',system-ui,sans-serif" font-size="14" fill="#f1f3f5"><tspan x="713" y="1559.6">Tool:</tspan><tspan x="713" y="1577.1">Generate Candidate?</tspan></text><text text-anchor='middle' font-family="'Comic Shanns','Virgil','Segoe UI',system-ui,sans-serif" font-size="10" fill="#adb5bd"><tspan x="713" y="1599">LLM sub-agent genera HTML/CSS/JS</tspan><tspan x="713" y="1611.5">exploration=True, target_h=0..N</tspan></text><rect x="563" y="1693" width="300" height="84" rx="8" fill="#4c1d95" stroke="#a78bfa" stroke-width="2"/><text text-anchor='middle' font-family="'Comic Shanns','Virgil','Segoe UI',system-ui,sans-serif" font-size="14" fill="#f1f3f5"><tspan x="713" y="1722.3">Snapshot Workspace</tspan></text><text text-anchor='middle' font-family="'Comic Shanns','Virgil','Segoe UI',system-ui,sans-serif" font-size="10" fill="#adb5bd"><tspan x="713" y="1744.2">Copia workspace/ → candidates/{id}/</tspan><tspan x="713" y="1756.8">para historial de cambios</tspan></text><polygon points="713,1807 906,1889 713,1971 520,1889" fill="#713f12" stroke="#facc15" stroke-width="2"/><text text-anchor='middle' font-family="'Comic Shanns','Virgil','Segoe UI',system-ui,sans-serif" font-size="14" fill="#f1f3f5"><tspan x="713" y="1867.6">Tool:</tspan><tspan x="713" y="1885.1">Audit Visual?</tspan></text><text text-anchor='middle' font-family="'Comic Shanns','Virgil','Segoe UI',system-ui,sans-serif" font-size="10" fill="#adb5bd"><tspan x="713" y="1907">VLM Gemini: screenshot → score 0-100</tspan><tspan x="713" y="1919.5">+ issues + suggestions</tspan></text><polygon points="713,2001 879.9,2083 713,2165 546.1,2083" fill="#713f12" stroke="#facc15" stroke-width="2"/><text text-anchor='middle' font-family="'Comic Shanns','Virgil','Segoe UI',system-ui,sans-serif" font-size="14" fill="#f1f3f5"><tspan x="713" y="2061.6">Tool:</tspan><tspan x="713" y="2079.1">Audit Page?</tspan></text><text text-anchor='middle' font-family="'Comic Shanns','Virgil','Segoe UI',system-ui,sans-serif" font-size="10" fill="#adb5bd"><tspan x="713" y="2101">Validación estática: SEO, A11y,</tspan><tspan x="713" y="2113.5">Perf, Responsive, Best Practices</tspan></text><polygon points="713,2195 864.4,2277 713,2359 561.6,2277" fill="#713f12" stroke="#facc15" stroke-width="2"/><text text-anchor='middle' font-family="'Comic Shanns','Virgil','Segoe UI',system-ui,sans-serif" font-size="14" fill="#f1f3f5"><tspan x="713" y="2255.6">Tool:</tspan><tspan x="713" y="2273.1">Revert Workspace?</tspan></text><text text-anchor='middle' font-family="'Comic Shanns','Virgil','Segoe UI',system-ui,sans-serif" font-size="10" fill="#adb5bd"><tspan x="713" y="2295">Restaura candidato anterior</tspan><tspan x="713" y="2307.5">si el nuevo empeora</tspan></text><rect x="1026" y="536.5" width="280" height="84" rx="8" fill="#134e4a" stroke="#2dd4bf" stroke-width="2"/><text text-anchor='middle' font-family="'Comic Shanns','Virgil','Segoe UI',system-ui,sans-serif" font-size="14" fill="#f1f3f5"><tspan x="1166" y="565.9">Generate Candidate</tspan></text><text text-anchor='middle' font-family="'Comic Shanns','Virgil','Segoe UI',system-ui,sans-serif" font-size="10" fill="#adb5bd"><tspan x="1166" y="587.8">LLM sub-agent genera HTML/CSS/JS</tspan><tspan x="1166" y="600.2">exploration=True, target_h=0..N</tspan></text><rect x="1026" y="650.5" width="280" height="84" rx="8" fill="#134e4a" stroke="#2dd4bf" stroke-width="2"/><text text-anchor='middle' font-family="'Comic Shanns','Virgil','Segoe UI',system-ui,sans-serif" font-size="14" fill="#f1f3f5"><tspan x="1166" y="679.9">Audit Visual</tspan></text><text text-anchor='middle' font-family="'Comic Shanns','Virgil','Segoe UI',system-ui,sans-serif" font-size="10" fill="#adb5bd"><tspan x="1166" y="701.8">VLM Gemini: screenshot → score 0-100</tspan><tspan x="1166" y="714.2">+ issues + suggestions</tspan></text><rect x="1026" y="764.5" width="280" height="84" rx="8" fill="#134e4a" stroke="#2dd4bf" stroke-width="2"/><text text-anchor='middle' font-family="'Comic Shanns','Virgil','Segoe UI',system-ui,sans-serif" font-size="14" fill="#f1f3f5"><tspan x="1166" y="793.9">Audit Page</tspan></text><text text-anchor='middle' font-family="'Comic Shanns','Virgil','Segoe UI',system-ui,sans-serif" font-size="10" fill="#adb5bd"><tspan x="1166" y="815.8">Validación estática: SEO, A11y,</tspan><tspan x="1166" y="828.2">Perf, Responsive, Best Practices</tspan></text><rect x="1026" y="878.5" width="280" height="84" rx="8" fill="#134e4a" stroke="#2dd4bf" stroke-width="2"/><text text-anchor='middle' font-family="'Comic Shanns','Virgil','Segoe UI',system-ui,sans-serif" font-size="14" fill="#f1f3f5"><tspan x="1166" y="907.9">Revert Workspace</tspan></text><text text-anchor='middle' font-family="'Comic Shanns','Virgil','Segoe UI',system-ui,sans-serif" font-size="10" fill="#adb5bd"><tspan x="1166" y="929.8">Restaura candidato anterior</tspan><tspan x="1166" y="942.2">si el nuevo empeora</tspan></text><rect x="120" y="536.5" width="280" height="84" rx="8" fill="#7c2d12" stroke="#fb923c" stroke-width="3" stroke-dasharray="7 5"/><text text-anchor='middle' font-family="'Comic Shanns','Virgil','Segoe UI',system-ui,sans-serif" font-size="14" fill="#f1f3f5"><tspan x="260" y="565.9">Auto Truth Audit</tspan></text><text text-anchor='middle' font-family="'Comic Shanns','Virgil','Segoe UI',system-ui,sans-serif" font-size="10" fill="#adb5bd"><tspan x="260" y="587.8">1 vez/run: partes conectadas</tspan><tspan x="260" y="600.2">repo linking, broken refs</tspan></text><rect x="120" y="650.5" width="280" height="84" rx="8" fill="#7c2d12" stroke="#fb923c" stroke-width="3" stroke-dasharray="7 5"/><text text-anchor='middle' font-family="'Comic Shanns','Virgil','Segoe UI',system-ui,sans-serif" font-size="14" fill="#f1f3f5"><tspan x="260" y="679.9">Auto Lesson</tspan></text><text text-anchor='middle' font-family="'Comic Shanns','Virgil','Segoe UI',system-ui,sans-serif" font-size="10" fill="#adb5bd"><tspan x="260" y="701.8">delta ≥ 4.0 → aprende worked/didnt</tspan><tspan x="260" y="714.2">max 8/run, dedup por snippet</tspan></text><rect x="120" y="764.5" width="280" height="84" rx="8" fill="#7c2d12" stroke="#fb923c" stroke-width="3" stroke-dasharray="7 5"/><text text-anchor='middle' font-family="'Comic Shanns','Virgil','Segoe UI',system-ui,sans-serif" font-size="14" fill="#f1f3f5"><tspan x="260" y="793.9">Auto Visual Audit</tspan></text><text text-anchor='middle' font-family="'Comic Shanns','Virgil','Segoe UI',system-ui,sans-serif" font-size="10" fill="#adb5bd"><tspan x="260" y="815.8">Post-generate: VLM screenshot</tspan><tspan x="260" y="828.2">evalúa calidad visual 0-100</tspan></text><rect x="120" y="878.5" width="280" height="84" rx="8" fill="#7c2d12" stroke="#fb923c" stroke-width="3" stroke-dasharray="7 5"/><text text-anchor='middle' font-family="'Comic Shanns','Virgil','Segoe UI',system-ui,sans-serif" font-size="14" fill="#f1f3f5"><tspan x="260" y="907.9">Compute Novelty</tspan></text><text text-anchor='middle' font-family="'Comic Shanns','Virgil','Segoe UI',system-ui,sans-serif" font-size="10" fill="#adb5bd"><tspan x="260" y="929.8">DOM(0.45) + palette(0.35)</tspan><tspan x="260" y="942.2">+ JS(0.20) vs best previous</tspan></text><ellipse cx="713" cy="2488.2" rx="92.1" ry="39.2" fill="#7f1d1d" stroke="#f87171" stroke-width="2"/><text text-anchor='middle' font-family="'Comic Shanns','Virgil','Segoe UI',system-ui,sans-serif" font-size="14" fill="#f1f3f5"><tspan x="713" y="2475.6">Export Final</tspan></text><text text-anchor='middle' font-family="'Comic Shanns','Virgil','Segoe UI',system-ui,sans-serif" font-size="10" fill="#adb5bd"><tspan x="713" y="2497.5">Copia mejor candidato a</tspan><tspan x="713" y="2510">runs/{run_id}/final/index.html</tspan></text><rect x="1026" y="2509" width="280" height="84" rx="8" fill="#134e4a" stroke="#2dd4bf" stroke-width="2"/><text text-anchor='middle' font-family="'Comic Shanns','Virgil','Segoe UI',system-ui,sans-serif" font-size="14" fill="#f1f3f5"><tspan x="1166" y="2538.3">Select Final</tspan></text><text text-anchor='middle' font-family="'Comic Shanns','Virgil','Segoe UI',system-ui,sans-serif" font-size="10" fill="#adb5bd"><tspan x="1166" y="2560.2">Selecciona mejor candidato</tspan><tspan x="1166" y="2572.8">y exporta a runs/{run_id}/final/</tspan></text></svg>